<svg id="katman_1" data-name="katman 1" xmlns="http://www.w3.org/2000/svg" viewBox="0 0 784.61 347.84"><defs><style>.cls-1{font-size:320px;font-family:Poppins-SemiBold, Poppins SemiBold;}.cls-1,.cls-2{font-weight:600;}.cls-2{font-size:212.39px;font-family:Poppins-SemiBoldItalic, Poppins SemiBoldItalic;font-style:italic;}.cls-3,.cls-4{font-size:46.82px;}.cls-3{font-family:Poppins-Light, Poppins Light;font-weight:300;}.cls-4{font-family:Poppins-Medium, Poppins Medium;font-weight:500;}</style></defs><text class="cls-1" transform="translate(0 267.84)">R</text><text class="cls-2" transform="translate(283.25 253.66) rotate(-90)">s</text><rect x="131.76" y="139.78" width="758.22" height="8" transform="translate(-99.51 -91.79) rotate(4.07)"/><rect x="137" y="260.09" width="646" height="8"/><rect x="294" y="178.09" width="121" height="8"/><rect x="469" y="178.09" width="121" height="8"/><rect x="654" y="178.09" width="121" height="8"/><path d="M523.52,133.88l-7-14.24-6-.46-1,13.64-3.27-.25,2.46-32.64,9.81.74c3.64.27,6.33,1.35,8.09,3.24a8.92,8.92,0,0,1,2.3,7.08,9.25,9.25,0,0,1-2.48,5.89,9.77,9.77,0,0,1-6.25,2.79l7.36,14.5Zm-12.87-17.36,6.58.5q3.82.28,5.91-1.44a6.61,6.61,0,0,0,2.31-4.85,6.5,6.5,0,0,0-1.49-5.11c-1.16-1.26-3.07-2-5.75-2.19l-6.54-.5Z" transform="translate(-111 -55.91)"/><path d="M551.88,105.87,551,118.05l12.37.94-.2,2.7-12.37-.93-.94,12.38,13.78,1-.21,2.71-17-1.28,2.46-32.69,17.05,1.29-.21,2.71Z" transform="translate(-111 -55.91)"/><path d="M602,123.21c-2,1.58-4.79,2.22-8.46,2l-6.58-.5-1.05,13.92-3.27-.25,2.46-32.64,9.85.74q5.46.42,8,3.19a9.76,9.76,0,0,1-1,13.59Zm-.1-6.81a6.44,6.44,0,0,0-1.45-5.09q-1.7-1.82-5.71-2.12l-6.58-.5-1,13.17,6.58.5Q601.41,122.93,601.89,116.4Z" transform="translate(-111 -55.91)"/><path d="M670.72,112.14l-2.46,32.64-3.27-.25,2.46-32.63Z" transform="translate(-111 -55.91)"/><path d="M705.84,147.61l-7.05-14.24-6-.46-1,13.64-3.27-.25,2.46-32.63,9.81.73q5.46.42,8.09,3.24a9,9,0,0,1,2.31,7.08,9.29,9.29,0,0,1-2.49,5.89,9.72,9.72,0,0,1-6.24,2.8l7.36,14.5ZM693,130.25l6.58.5q3.84.28,5.91-1.43a6.61,6.61,0,0,0,2.31-4.85,6.47,6.47,0,0,0-1.49-5.12c-1.16-1.26-3.07-2-5.75-2.19l-6.54-.49Z" transform="translate(-111 -55.91)"/><path d="M758.9,150.78a9.6,9.6,0,0,1-3.87-3.55,8.27,8.27,0,0,1-1.12-5l5.69.42a5.16,5.16,0,0,0,1.4,3.58,5.87,5.87,0,0,0,4,1.67,6.39,6.39,0,0,0,4.4-1,4.35,4.35,0,0,0,1.8-3.31,3.78,3.78,0,0,0-.76-2.74,6.42,6.42,0,0,0-2.26-1.76,34.46,34.46,0,0,0-3.86-1.51,36.69,36.69,0,0,1-5-2.1,8.43,8.43,0,0,1-3.18-2.94,7.79,7.79,0,0,1-1-5,8.83,8.83,0,0,1,1.77-4.8,9,9,0,0,1,4.17-2.92,14.24,14.24,0,0,1,5.92-.68,12.13,12.13,0,0,1,7.55,2.94,8.71,8.71,0,0,1,2.85,6.72l-5.88-.45a4.31,4.31,0,0,0-1.45-3.16,6.26,6.26,0,0,0-4-1.57,5.82,5.82,0,0,0-3.82.89,4.07,4.07,0,0,0-1.7,3.25,3.38,3.38,0,0,0,.72,2.52,6.3,6.3,0,0,0,2.2,1.69,34.71,34.71,0,0,0,3.73,1.51,38.38,38.38,0,0,1,5.12,2.17,8.69,8.69,0,0,1,3.25,3,7.88,7.88,0,0,1,1.06,5,8.93,8.93,0,0,1-1.69,4.57,9.51,9.51,0,0,1-4.14,3.23,12.71,12.71,0,0,1-6.1.88A14.35,14.35,0,0,1,758.9,150.78Z" transform="translate(-111 -55.91)"/><path d="M860.59,126.63l-.33,4.34-13.77-1-.72,9.57,10.74.81-.33,4.34-10.74-.81L844.37,158l-5.32-.4,2.44-32.45Z" transform="translate(-111 -55.91)"/><path d="M882.68,132.62l-.72,9.52,11.2.84-.32,4.35-11.21-.85-.75,10,12.61.95-.33,4.34-17.93-1.35,2.45-32.5,17.93,1.35-.33,4.35Z" transform="translate(-111 -55.91)"/><text class="cls-3" transform="translate(539.92 55.36) rotate(-175.69)">V</text><text class="cls-4" transform="translate(713.56 67.6) rotate(-175.69)">V</text></svg>